<svg id="Capa_1" data-name="Capa 1" xmlns="http://www.w3.org/2000/svg" xmlns:xlink="http://www.w3.org/1999/xlink" viewBox="0 0 191.14 191.97"><defs><style>.cls-1{fill:none;}.cls-2{clip-path:url(#clip-path);}.cls-3{fill:url(#Degradado_sin_nombre_28);}.cls-4{fill:url(#Degradado_sin_nombre_3);}.cls-10,.cls-11,.cls-12,.cls-13,.cls-14,.cls-15,.cls-5,.cls-6,.cls-7,.cls-8,.cls-9{opacity:0.4;}.cls-10,.cls-11,.cls-12,.cls-13,.cls-14,.cls-15,.cls-17,.cls-5,.cls-6,.cls-7,.cls-8,.cls-9{isolation:isolate;}.cls-5{fill:url(#Degradado_sin_nombre_4);}.cls-6{fill:url(#Degradado_sin_nombre_3-2);}.cls-7{fill:url(#Degradado_sin_nombre_3-3);}.cls-8{fill:url(#Degradado_sin_nombre_3-4);}.cls-9{fill:url(#Degradado_sin_nombre_3-5);}.cls-10{fill:url(#Degradado_sin_nombre_3-6);}.cls-11{fill:url(#Degradado_sin_nombre_3-7);}.cls-12{fill:url(#Degradado_sin_nombre_3-8);}.cls-13{fill:url(#Degradado_sin_nombre_3-9);}.cls-14{fill:url(#Degradado_sin_nombre_3-10);}.cls-15{fill:url(#Degradado_sin_nombre_3-11);}.cls-16{opacity:0.78;fill:url(#Degradado_sin_nombre_3-12);}.cls-17{opacity:0.27;fill:url(#Degradado_sin_nombre_3-13);}</style><clipPath id="clip-path" transform="translate(-3.81 -2.48)"><rect class="cls-1" x="0.19" y="0.3" width="196.61" height="195.4"/></clipPath><radialGradient id="Degradado_sin_nombre_28" cx="-867.27" cy="642.08" r="1.31" gradientTransform="matrix(-138.29, 0, 0, 138.89, -119811.92, -89137.95)" gradientUnits="userSpaceOnUse"><stop offset="0.2" stop-color="#d9d9d9"/><stop offset="0.55" stop-color="#999"/><stop offset="0.95" stop-color="#606060"/></radialGradient><radialGradient id="Degradado_sin_nombre_3" cx="-866.44" cy="661.16" r="1.31" gradientTransform="matrix(-17.42, 24.05, 35.04, 25.38, -38122.41, 4115.24)" gradientUnits="userSpaceOnUse"><stop offset="0" stop-color="#fff"/><stop offset="1" stop-color="#fff" stop-opacity="0"/></radialGradient><radialGradient id="Degradado_sin_nombre_4" cx="-889.8" cy="620.55" r="1.31" gradientTransform="matrix(-23.47, -22.14, -9.41, 9.97, -14999.56, -25741.65)" xlink:href="#Degradado_sin_nombre_3"/><radialGradient id="Degradado_sin_nombre_3-2" cx="-875.55" cy="539.58" r="1.01" gradientTransform="matrix(-9.61, 10.83, 2.2, 5.57, -9573.07, 6541.95)" xlink:href="#Degradado_sin_nombre_3"/><radialGradient id="Degradado_sin_nombre_3-3" cx="-879.81" cy="566.55" r="0.59" gradientTransform="matrix(-9.61, 10.83, 2.2, 5.57, -9573.07, 6541.95)" xlink:href="#Degradado_sin_nombre_3"/><radialGradient id="Degradado_sin_nombre_3-4" cx="-876.68" cy="587.44" r="1.19" gradientTransform="matrix(-13.75, 4.53, -0.9, 5.92, -11422, 668.21)" xlink:href="#Degradado_sin_nombre_3"/><radialGradient id="Degradado_sin_nombre_3-5" cx="-862.65" cy="538.52" r="1.19" gradientTransform="matrix(-9.93, 3.64, -0.81, 4.29, -8054.31, 864.88)" xlink:href="#Degradado_sin_nombre_3"/><radialGradient id="Degradado_sin_nombre_3-6" cx="-864.86" cy="543.84" r="1.19" gradientTransform="matrix(-9.93, 3.64, -0.81, 4.29, -8054.31, 864.88)" xlink:href="#Degradado_sin_nombre_3"/><radialGradient id="Degradado_sin_nombre_3-7" cx="-860.33" cy="536.16" r="1.19" gradientTransform="matrix(-9.93, 3.64, -0.81, 4.29, -8054.31, 864.88)" xlink:href="#Degradado_sin_nombre_3"/><radialGradient id="Degradado_sin_nombre_3-8" cx="-863.84" cy="535.94" r="1.19" gradientTransform="matrix(-9.93, 3.64, -0.81, 4.29, -8054.31, 864.88)" xlink:href="#Degradado_sin_nombre_3"/><radialGradient id="Degradado_sin_nombre_3-9" cx="-881.88" cy="568.84" r="0.59" gradientTransform="matrix(-9.61, 10.83, 2.2, 5.57, -9573.07, 6541.95)" xlink:href="#Degradado_sin_nombre_3"/><radialGradient id="Degradado_sin_nombre_3-10" cx="-881.2" cy="565.76" r="0.59" gradientTransform="matrix(-9.61, 10.83, 2.2, 5.57, -9573.07, 6541.95)" xlink:href="#Degradado_sin_nombre_3"/><radialGradient id="Degradado_sin_nombre_3-11" cx="-879.29" cy="563.5" r="0.59" gradientTransform="matrix(-9.61, 10.83, 2.2, 5.57, -9573.07, 6541.95)" xlink:href="#Degradado_sin_nombre_3"/><radialGradient id="Degradado_sin_nombre_3-12" cx="-866.36" cy="661" r="1.25" xlink:href="#Degradado_sin_nombre_3"/><radialGradient id="Degradado_sin_nombre_3-13" cx="-889.6" cy="620.28" r="1.25" gradientTransform="matrix(-23.47, -22.14, -9.41, 9.97, -14999.56, -25741.65)" xlink:href="#Degradado_sin_nombre_3"/></defs><title>01n</title><g class="cls-2"><path class="cls-3" d="M3.81,98.47a95.69,95.69,0,0,0,95.57,96c53,0,95.57-43.07,95.57-96a95.69,95.69,0,0,0-95.57-96C46.7,2.14,3.81,45.22,3.81,98.47Z" transform="translate(-3.81 -2.48)"/><path class="cls-4" d="M114.24,88.29C89.93,68.28,80.47,38.1,93,20.8s42.55-15.6,67.2,4.41c24.32,20,33.77,50.19,21.28,67.49C168.61,110.34,138.56,108.3,114.24,88.29Z" transform="translate(-3.81 -2.48)"/><path class="cls-5" d="M15,119.5c3.38-10.52,19.59-6.11,36.82,9.83,16.88,15.94,28.36,37.65,25,48.5C73.38,188.35,57.17,183.94,40,168,23.06,151.72,11.92,130,15,119.5Z" transform="translate(-3.81 -2.48)"/><path class="cls-6" d="M21.63,81.34C20.12,80.11,17.44,71,20.92,67s11.81-1.13,13.37.11-.07,5.32-3.54,9.3S23.16,82.48,21.63,81.34Z" transform="translate(-3.81 -2.48)"/><path class="cls-7" d="M123.81,181.28c-.88-.73-2.46-6.11-.41-8.46s6.95-.66,7.87.07,0,3.13-2.09,5.47S124.71,182,123.81,181.28Z" transform="translate(-3.81 -2.48)"/><path class="cls-8" d="M92.53,184.67c-.68-1.82,1.6-11.08,6.61-12.77s10.77,5,11.5,6.81-1.82,7.56-6.82,9.25S93.28,186.42,92.53,184.67Z" transform="translate(-3.81 -2.48)"/><path class="cls-9" d="M70.81,34c-.44-1.29,1.45-8,5.07-9.38s7.54,3.27,8,4.58S82.38,34.65,78.76,36,71.29,35.2,70.81,34Z" transform="translate(-3.81 -2.48)"/><path class="cls-10" d="M88.44,48.72c-.44-1.29,1.45-8,5.07-9.38s7.55,3.27,8,4.58S100,49.41,96.4,50.77,88.92,50,88.44,48.72Z" transform="translate(-3.81 -2.48)"/><path class="cls-11" d="M49.64,32.28c-.43-1.29,1.45-8,5.07-9.37s7.55,3.26,8,4.57S61.22,33,57.6,34.33,50.13,33.52,49.64,32.28Z" transform="translate(-3.81 -2.48)"/><path class="cls-12" d="M84.74,18.53c-.44-1.29,1.45-8,5.07-9.38s7.54,3.27,8,4.58-1.51,5.49-5.13,6.85S85.22,19.76,84.74,18.53Z" transform="translate(-3.81 -2.48)"/><path class="cls-13" d="M148.75,171.61c-.89-.72-2.47-6.11-.42-8.45s6.95-.67,7.87.06,0,3.13-2.08,5.48S149.65,172.28,148.75,171.61Z" transform="translate(-3.81 -2.48)"/><path class="cls-14" d="M135.45,161.8c-.89-.72-2.47-6.11-.42-8.45s6.95-.67,7.87.06,0,3.13-2.09,5.48S136.34,162.47,135.45,161.8Z" transform="translate(-3.81 -2.48)"/><path class="cls-15" d="M112.17,169.85c-.88-.72-2.46-6.11-.42-8.45s7-.67,7.87.06,0,3.13-2.08,5.48S113.07,170.52,112.17,169.85Z" transform="translate(-3.81 -2.48)"/></g><path class="cls-16" d="M108.61,84.39c-23-19-32-47.6-20.17-64s40.34-14.79,63.72,4.18c23.05,19,32,47.6,20.17,64C160.16,105.29,131.67,103.36,108.61,84.39Z" transform="translate(-3.81 -2.48)"/><path class="cls-17" d="M14.47,114c3.2-10,18.57-5.79,34.9,9.33,16,15.11,26.9,35.7,23.7,46-3.2,10-18.57,5.78-34.9-9.33C22.16,144.52,11.59,123.94,14.47,114Z" transform="translate(-3.81 -2.48)"/></svg>