<svg width="197" height="196" viewBox="0 0 197 196" fill="none" xmlns="http://www.w3.org/2000/svg">
<g clip-path="url(#clip0_1_345)">
<path d="M185.043 116.821L172.897 117.77L170.62 129.537L159.042 126.12L152.969 136.559L143.1 129.347L133.801 137.128L126.968 127.069L115.581 131.055L112.734 119.288L100.588 119.098L101.916 106.952L90.5289 102.777L96.0328 91.7688L86.7332 83.9875L95.4634 75.6368L89.58 65.0087L100.777 60.0742L98.8796 48.1175L110.836 47.3584L113.114 35.4017L124.691 38.8179L130.954 28.5694L140.823 35.5915L150.122 28L156.765 38.0588L168.342 34.0732L171.189 45.8401L183.335 46.0299L182.007 57.9865L193.204 62.3517L187.89 73.1696L197 81.1407L188.27 89.4914L194.153 100.12L183.146 104.864L185.043 116.821Z" fill="url(#paint0_linear_1_345)"/>
<path d="M141.961 123.274C164.497 123.274 182.766 105.005 182.766 82.4695C182.766 59.9338 164.497 41.665 141.961 41.665C119.426 41.665 101.157 59.9338 101.157 82.4695C101.157 105.005 119.426 123.274 141.961 123.274Z" fill="url(#paint1_radial_1_345)"/>
<path d="M148.225 78.2933C137.786 69.9427 133.801 57.0371 139.115 49.6353C144.429 42.2336 157.334 42.9927 167.773 51.5332C178.211 59.8839 182.197 72.7895 176.883 80.1912C171.379 87.593 158.473 86.8338 148.225 78.2933Z" fill="url(#paint2_radial_1_345)"/>
<path opacity="0.4" d="M105.902 91.5789C107.23 87.024 114.253 88.9219 121.464 95.7543C128.676 102.587 133.421 111.696 132.093 116.251C130.764 120.806 123.742 118.908 116.53 112.076C109.318 105.244 104.384 96.1338 105.902 91.5789Z" fill="url(#paint3_radial_1_345)"/>
<path d="M138.545 98.9806C136.647 72.4102 114.442 51.3438 87.4923 51.3438C60.3526 51.3438 38.1474 72.4102 36.4393 98.9806C16.132 100.119 0 116.821 0 137.128C0 158.195 17.0809 175.275 38.1474 175.275H136.647C157.714 175.275 174.795 158.195 174.795 137.128C174.795 116.821 158.663 100.119 138.545 98.9806Z" fill="url(#paint4_radial_1_345)"/>
<path d="M138.545 98.9806C136.647 72.4102 114.442 51.3438 87.4923 51.3438C60.3526 51.3438 38.1474 72.4102 36.4393 98.9806C16.132 100.119 0 116.821 0 137.128C0 158.195 17.0809 175.275 38.1474 175.275H136.647C157.714 175.275 174.795 158.195 174.795 137.128C174.795 116.821 158.663 100.119 138.545 98.9806Z" fill="url(#paint5_radial_1_345)"/>
<path d="M87.4923 103.726C73.0684 92.1487 67.5646 74.3086 74.9663 64.06C82.3681 53.8114 100.208 54.9502 114.442 66.5272C128.866 78.1043 134.37 95.9444 126.968 106.193C119.567 116.631 101.726 115.493 87.4923 103.726Z" fill="url(#paint6_radial_1_345)"/>
<path opacity="0.4" d="M138.735 138.266C127.348 129.157 122.983 115.112 128.866 107.141C134.75 99.1701 148.604 99.9293 159.992 109.229C171.379 118.339 175.744 132.383 169.86 140.354C163.977 148.325 150.123 147.376 138.735 138.266Z" fill="url(#paint7_radial_1_345)"/>
<path opacity="0.2" d="M27.3294 139.595C18.9787 126.5 9.29955 120.237 5.69358 125.551C2.0876 130.865 5.88336 145.668 14.234 158.764C22.5847 171.859 32.2639 178.122 35.8699 172.808C39.4759 167.304 35.6801 152.501 27.3294 139.595Z" fill="url(#paint8_radial_1_345)"/>
</g>
<defs>
<linearGradient id="paint0_linear_1_345" x1="192.191" y1="26.3644" x2="95.304" y2="134.632" gradientUnits="userSpaceOnUse">
<stop stop-color="#FFBA24"/>
<stop offset="1" stop-color="#FF5500"/>
</linearGradient>
<radialGradient id="paint1_radial_1_345" cx="0" cy="0" r="1" gradientUnits="userSpaceOnUse" gradientTransform="translate(151.266 56.931) rotate(180) scale(77.5106 77.5106)">
<stop stop-color="#FFF4C3"/>
<stop offset="0.1559" stop-color="#FFE036"/>
<stop offset="1" stop-color="#FA761C"/>
</radialGradient>
<radialGradient id="paint2_radial_1_345" cx="0" cy="0" r="1" gradientUnits="userSpaceOnUse" gradientTransform="translate(157.913 64.9066) rotate(126.034) scale(16.5981 24.2135)">
<stop stop-color="white"/>
<stop offset="1" stop-color="white" stop-opacity="0"/>
</radialGradient>
<radialGradient id="paint3_radial_1_345" cx="0" cy="0" r="1" gradientUnits="userSpaceOnUse" gradientTransform="translate(118.997 103.916) rotate(-136.79) scale(18.0492 7.66618)">
<stop stop-color="white"/>
<stop offset="1" stop-color="white" stop-opacity="0"/>
</radialGradient>
<radialGradient id="paint4_radial_1_345" cx="0" cy="0" r="1" gradientUnits="userSpaceOnUse" gradientTransform="translate(109.452 77.4811) rotate(180) scale(133.341 97.4053)">
<stop stop-color="white"/>
<stop offset="0.198" stop-color="#D5F3FF"/>
<stop offset="1" stop-color="#85BCF1"/>
</radialGradient>
<radialGradient id="paint5_radial_1_345" cx="0" cy="0" r="1" gradientUnits="userSpaceOnUse" gradientTransform="translate(128.346 88.6633) scale(113.354 113.354)">
<stop stop-color="#FFE036"/>
<stop offset="0.00517282" stop-color="#FFDF36" stop-opacity="0.9933"/>
<stop offset="0.1623" stop-color="#FDB92C" stop-opacity="0.789"/>
<stop offset="0.319" stop-color="#FC9C25" stop-opacity="0.5851"/>
<stop offset="0.4735" stop-color="#FB8720" stop-opacity="0.3841"/>
<stop offset="0.6247" stop-color="#FA7A1D" stop-opacity="0.1875"/>
<stop offset="0.7688" stop-color="#FA761C" stop-opacity="0"/>
</radialGradient>
<radialGradient id="paint6_radial_1_345" cx="0" cy="0" r="1" gradientUnits="userSpaceOnUse" gradientTransform="translate(100.912 85.2529) rotate(126.034) scale(22.949 33.4782)">
<stop stop-color="white"/>
<stop offset="1" stop-color="white" stop-opacity="0"/>
</radialGradient>
<radialGradient id="paint7_radial_1_345" cx="0" cy="0" r="1" gradientUnits="userSpaceOnUse" gradientTransform="translate(149.417 123.701) rotate(126.034) scale(18.0353 26.31)">
<stop stop-color="white"/>
<stop offset="1" stop-color="white" stop-opacity="0"/>
</radialGradient>
<radialGradient id="paint8_radial_1_345" cx="0" cy="0" r="1" gradientUnits="userSpaceOnUse" gradientTransform="translate(20.7588 149.123) rotate(-25.7092) scale(9.2447 26.9121)">
<stop stop-color="white"/>
<stop offset="1" stop-color="white" stop-opacity="0"/>
</radialGradient>
<clipPath id="clip0_1_345">
<rect width="196.611" height="195.398" fill="white" transform="translate(0.0385742)"/>
</clipPath>
</defs>
</svg>
