<?xml version="1.0" encoding="utf-8"?>
<!-- Generator: Adobe Illustrator 24.0.2, SVG Export Plug-In . SVG Version: 6.00 Build 0)  -->
<svg version="1.1" id="Capa_1" xmlns="http://www.w3.org/2000/svg" xmlns:xlink="http://www.w3.org/1999/xlink" x="0px" y="0px"
	 viewBox="0 0 197 196" style="enable-background:new 0 0 197 196;" xml:space="preserve">
<style type="text/css">
	.st0{clip-path:url(#SVGID_2_);}
	.st1{fill:url(#SVGID_3_);}
	.st2{fill:url(#SVGID_4_);}
	.st3{opacity:0.4;fill:url(#SVGID_5_);enable-background:new    ;}
	.st4{opacity:0.4;fill:url(#SVGID_6_);enable-background:new    ;}
	.st5{opacity:0.4;fill:url(#SVGID_7_);enable-background:new    ;}
	.st6{opacity:0.4;fill:url(#SVGID_8_);enable-background:new    ;}
	.st7{opacity:0.4;fill:url(#SVGID_9_);enable-background:new    ;}
	.st8{opacity:0.4;fill:url(#SVGID_10_);enable-background:new    ;}
	.st9{opacity:0.4;fill:url(#SVGID_11_);enable-background:new    ;}
	.st10{opacity:0.4;fill:url(#SVGID_12_);enable-background:new    ;}
	.st11{opacity:0.4;fill:url(#SVGID_13_);enable-background:new    ;}
	.st12{opacity:0.4;fill:url(#SVGID_14_);enable-background:new    ;}
	.st13{opacity:0.4;fill:url(#SVGID_15_);enable-background:new    ;}
	.st14{opacity:0.78;fill:url(#SVGID_16_);}
	.st15{opacity:0.27;fill:url(#SVGID_17_);enable-background:new    ;}
	.st16{clip-path:url(#SVGID_19_);}
	.st17{fill:url(#SVGID_20_);}
	.st18{opacity:0.4;fill:url(#SVGID_21_);enable-background:new    ;}
	.st19{fill:url(#SVGID_22_);}
	.st20{fill:url(#SVGID_23_);}
	.st21{fill:url(#SVGID_24_);}
	.st22{opacity:0.4;fill:url(#SVGID_25_);enable-background:new    ;}
	.st23{opacity:0.2;fill:url(#SVGID_26_);enable-background:new    ;}
</style>
<g>
	<defs>
		<rect id="SVGID_1_" x="90.3" y="41.7" width="106.7" height="106"/>
	</defs>
	<clipPath id="SVGID_2_">
		<use xlink:href="#SVGID_1_"  style="overflow:visible;"/>
	</clipPath>
	<g class="st0">
		
			<radialGradient id="SVGID_3_" cx="-867.5232" cy="642.2495" r="0.7131" gradientTransform="matrix(-138.288 0 0 138.887 -119811.9141 -89137.9453)" gradientUnits="userSpaceOnUse">
			<stop  offset="0.196" style="stop-color:#D9D9D9"/>
			<stop  offset="0.5458" style="stop-color:#999999"/>
			<stop  offset="0.9491" style="stop-color:#606060"/>
		</radialGradient>
		<path class="st1" d="M92.3,94.9c0,28.9,23.3,52.1,51.9,52.1c28.8,0,51.9-23.4,51.9-52.1c0-28.9-23.3-52.1-51.9-52.1
			C115.5,42.7,92.3,66,92.3,94.9z"/>
		
			<radialGradient id="SVGID_4_" cx="-866.5562" cy="661.887" r="0.7127" gradientTransform="matrix(-17.4205 24.0504 35.038 25.3792 -38122.4141 4115.2446)" gradientUnits="userSpaceOnUse">
			<stop  offset="0" style="stop-color:#FFFFFF"/>
			<stop  offset="1" style="stop-color:#FFFFFF;stop-opacity:0"/>
		</radialGradient>
		<path class="st2" d="M152.2,89.4c-13.2-10.9-18.3-27.2-11.5-36.6c6.8-9.4,23.1-8.5,36.5,2.4c13.2,10.9,18.3,27.2,11.5,36.6
			C181.7,101.4,165.4,100.3,152.2,89.4z"/>
		
			<radialGradient id="SVGID_5_" cx="-890.7922" cy="615.6792" r="0.7132" gradientTransform="matrix(-23.4697 -22.143 -9.4075 9.9711 -14999.5625 -25741.6484)" gradientUnits="userSpaceOnUse">
			<stop  offset="0" style="stop-color:#FFFFFF"/>
			<stop  offset="1" style="stop-color:#FFFFFF;stop-opacity:0"/>
		</radialGradient>
		<path class="st3" d="M98.3,106.4c1.8-5.7,10.6-3.3,20,5.3c9.2,8.7,15.4,20.4,13.6,26.3c-1.8,5.7-10.6,3.3-20-5.3
			C102.7,123.8,96.7,112.1,98.3,106.4z"/>
		
			<radialGradient id="SVGID_6_" cx="-880.9188" cy="551.6336" r="0.5456" gradientTransform="matrix(-9.6103 10.8252 2.1968 5.5728 -9573.0713 6541.9536)" gradientUnits="userSpaceOnUse">
			<stop  offset="0" style="stop-color:#FFFFFF"/>
			<stop  offset="1" style="stop-color:#FFFFFF;stop-opacity:0"/>
		</radialGradient>
		<path class="st4" d="M101.9,85.6c-0.8-0.7-2.3-5.6-0.4-7.8c1.9-2.1,6.4-0.6,7.3,0.1c0.8,0.7,0,2.9-1.9,5
			C105,85.1,102.8,86.3,101.9,85.6z"/>
		
			<radialGradient id="SVGID_7_" cx="-883.2286" cy="566.2724" r="0.3212" gradientTransform="matrix(-9.6103 10.8252 2.1968 5.5728 -9573.0713 6541.9536)" gradientUnits="userSpaceOnUse">
			<stop  offset="0" style="stop-color:#FFFFFF"/>
			<stop  offset="1" style="stop-color:#FFFFFF;stop-opacity:0"/>
		</radialGradient>
		<path class="st5" d="M157.4,139.9c-0.5-0.4-1.3-3.3-0.2-4.6c1.1-1.2,3.8-0.4,4.3,0c0.5,0.4,0,1.7-1.1,3
			C159.2,139.5,157.9,140.2,157.4,139.9z"/>
		
			<radialGradient id="SVGID_8_" cx="-879.541" cy="582.7535" r="0.6457" gradientTransform="matrix(-13.7501 4.5251 -0.9032 5.9217 -11422.002 668.2059)" gradientUnits="userSpaceOnUse">
			<stop  offset="0" style="stop-color:#FFFFFF"/>
			<stop  offset="1" style="stop-color:#FFFFFF;stop-opacity:0"/>
		</radialGradient>
		<path class="st6" d="M140.4,141.7c-0.4-1,0.9-6,3.6-6.9c2.7-0.9,5.8,2.7,6.2,3.7c0.4,1-1,4.1-3.7,5
			C143.8,144.4,140.8,142.7,140.4,141.7z"/>
		
			<radialGradient id="SVGID_9_" cx="-869.1364" cy="550.4948" r="0.6457" gradientTransform="matrix(-9.9328 3.6436 -0.8109 4.2867 -8054.3145 864.8834)" gradientUnits="userSpaceOnUse">
			<stop  offset="0" style="stop-color:#FFFFFF"/>
			<stop  offset="1" style="stop-color:#FFFFFF;stop-opacity:0"/>
		</radialGradient>
		<path class="st7" d="M128.6,59.9c-0.2-0.7,0.8-4.3,2.8-5.1c1.9-0.7,4.1,1.8,4.3,2.5c0.2,0.7-0.8,3-2.8,3.7
			C131,61.7,128.9,60.6,128.6,59.9z"/>
		
			<radialGradient id="SVGID_10_" cx="-870.3357" cy="553.3831" r="0.6457" gradientTransform="matrix(-9.9328 3.6436 -0.8109 4.2867 -8054.3145 864.8834)" gradientUnits="userSpaceOnUse">
			<stop  offset="0" style="stop-color:#FFFFFF"/>
			<stop  offset="1" style="stop-color:#FFFFFF;stop-opacity:0"/>
		</radialGradient>
		<path class="st8" d="M138.2,67.9c-0.2-0.7,0.8-4.3,2.8-5.1c1.9-0.7,4.1,1.8,4.3,2.5c0.2,0.7-0.8,3-2.8,3.7
			C140.6,69.7,138.5,68.6,138.2,67.9z"/>
		
			<radialGradient id="SVGID_11_" cx="-867.8752" cy="549.2105" r="0.6457" gradientTransform="matrix(-9.9328 3.6436 -0.8109 4.2867 -8054.3145 864.8834)" gradientUnits="userSpaceOnUse">
			<stop  offset="0" style="stop-color:#FFFFFF"/>
			<stop  offset="1" style="stop-color:#FFFFFF;stop-opacity:0"/>
		</radialGradient>
		<path class="st9" d="M117.1,59c-0.2-0.7,0.8-4.3,2.8-5.1c1.9-0.7,4.1,1.8,4.3,2.5c0.2,0.7-0.8,3-2.8,3.7
			C119.5,60.8,117.4,59.7,117.1,59z"/>
		
			<radialGradient id="SVGID_12_" cx="-869.7829" cy="549.0907" r="0.6457" gradientTransform="matrix(-9.9328 3.6436 -0.8109 4.2867 -8054.3145 864.8834)" gradientUnits="userSpaceOnUse">
			<stop  offset="0" style="stop-color:#FFFFFF"/>
			<stop  offset="1" style="stop-color:#FFFFFF;stop-opacity:0"/>
		</radialGradient>
		<path class="st10" d="M136.2,51.6c-0.2-0.7,0.8-4.3,2.8-5.1c1.9-0.7,4.1,1.8,4.3,2.5c0.2,0.7-0.8,3-2.8,3.7
			C138.5,53.4,136.4,52.2,136.2,51.6z"/>
		
			<radialGradient id="SVGID_13_" cx="-884.3528" cy="567.5146" r="0.3212" gradientTransform="matrix(-9.6103 10.8252 2.1968 5.5728 -9573.0713 6541.9536)" gradientUnits="userSpaceOnUse">
			<stop  offset="0" style="stop-color:#FFFFFF"/>
			<stop  offset="1" style="stop-color:#FFFFFF;stop-opacity:0"/>
		</radialGradient>
		<path class="st11" d="M170.9,134.6c-0.5-0.4-1.3-3.3-0.2-4.6c1.1-1.2,3.8-0.4,4.3,0c0.5,0.4,0,1.7-1.1,3
			C172.7,134.3,171.4,135,170.9,134.6z"/>
		
			<radialGradient id="SVGID_14_" cx="-883.9838" cy="565.8423" r="0.3212" gradientTransform="matrix(-9.6103 10.8252 2.1968 5.5728 -9573.0713 6541.9536)" gradientUnits="userSpaceOnUse">
			<stop  offset="0" style="stop-color:#FFFFFF"/>
			<stop  offset="1" style="stop-color:#FFFFFF;stop-opacity:0"/>
		</radialGradient>
		<path class="st12" d="M163.7,129.3c-0.5-0.4-1.3-3.3-0.2-4.6c1.1-1.2,3.8-0.4,4.3,0c0.5,0.4,0,1.7-1.1,3
			C165.5,129,164.2,129.7,163.7,129.3z"/>
		
			<radialGradient id="SVGID_15_" cx="-882.9495" cy="564.6175" r="0.3212" gradientTransform="matrix(-9.6103 10.8252 2.1968 5.5728 -9573.0713 6541.9536)" gradientUnits="userSpaceOnUse">
			<stop  offset="0" style="stop-color:#FFFFFF"/>
			<stop  offset="1" style="stop-color:#FFFFFF;stop-opacity:0"/>
		</radialGradient>
		<path class="st13" d="M151.1,133.7c-0.5-0.4-1.3-3.3-0.2-4.6c1.1-1.2,3.8-0.4,4.3,0c0.5,0.4,0,1.7-1.1,3
			C152.9,133.3,151.6,134,151.1,133.7z"/>
	</g>
</g>
<radialGradient id="SVGID_16_" cx="-866.3634" cy="661.0038" r="1.2452" gradientTransform="matrix(-17.4205 24.0504 35.038 25.3792 -38122.4141 4115.2446)" gradientUnits="userSpaceOnUse">
	<stop  offset="0" style="stop-color:#FFFFFF"/>
	<stop  offset="1" style="stop-color:#FFFFFF;stop-opacity:0"/>
</radialGradient>
<path class="st14" d="M108.6,84.4c-23.1-19-32-47.6-20.2-64c11.8-16.4,40.3-14.8,63.7,4.2c23.1,19,32,47.6,20.2,64
	C160.2,105.3,131.7,103.4,108.6,84.4z"/>
<radialGradient id="SVGID_17_" cx="-889.5984" cy="620.2808" r="1.2461" gradientTransform="matrix(-23.4697 -22.143 -9.4075 9.9711 -14999.5625 -25741.6484)" gradientUnits="userSpaceOnUse">
	<stop  offset="0" style="stop-color:#FFFFFF"/>
	<stop  offset="1" style="stop-color:#FFFFFF;stop-opacity:0"/>
</radialGradient>
<path class="st15" d="M14.5,114c3.2-10,18.6-5.8,34.9,9.3c16,15.1,26.9,35.7,23.7,46c-3.2,10-18.6,5.8-34.9-9.3
	C22.2,144.5,11.6,123.9,14.5,114z"/>
<g>
	<g>
		<defs>
			<rect id="SVGID_18_" x="1.2" y="12.6" width="196.6" height="195.4"/>
		</defs>
		<clipPath id="SVGID_19_">
			<use xlink:href="#SVGID_18_"  style="overflow:visible;"/>
		</clipPath>
		<g class="st16">
			
				<radialGradient id="SVGID_20_" cx="0.1639" cy="211.3343" r="1" gradientTransform="matrix(-9.7641 13.4224 19.5807 14.244 -3977.4011 -2934.9092)" gradientUnits="userSpaceOnUse">
				<stop  offset="0" style="stop-color:#FFFFFF"/>
				<stop  offset="1" style="stop-color:#FFFFFF;stop-opacity:0"/>
			</radialGradient>
			<path class="st17" d="M149.4,90.9c-10.4-8.4-14.4-21.3-9.1-28.7c5.3-7.4,18.2-6.6,28.7,1.9c10.4,8.4,14.4,21.3,9.1,28.7
				C172.5,100.2,159.6,99.5,149.4,90.9z"/>
			
				<radialGradient id="SVGID_21_" cx="-20.4291" cy="190.3018" r="1" gradientTransform="matrix(-13.1551 -12.3578 -5.2488 5.5875 850.269 -1199.2317)" gradientUnits="userSpaceOnUse">
				<stop  offset="0" style="stop-color:#FFFFFF"/>
				<stop  offset="1" style="stop-color:#FFFFFF;stop-opacity:0"/>
			</radialGradient>
			<path class="st18" d="M107.1,104.2c1.3-4.6,8.4-2.7,15.6,4.2c7.2,6.8,12,15.9,10.6,20.5c-1.3,4.6-8.4,2.7-15.6-4.2
				C110.5,117.9,105.5,108.8,107.1,104.2z"/>
			
				<radialGradient id="SVGID_22_" cx="-2.2398" cy="198.265" r="1" gradientTransform="matrix(-133.341 0 0 97.4053 -188.048 -19221.957)" gradientUnits="userSpaceOnUse">
				<stop  offset="0" style="stop-color:#FFFFFF"/>
				<stop  offset="0.198" style="stop-color:#D5F3FF"/>
				<stop  offset="1" style="stop-color:#85BCF1"/>
			</radialGradient>
			<path class="st19" d="M139.7,111.6C137.8,85,115.6,64,88.6,64C61.5,64,39.3,85,37.6,111.6c-20.3,1.1-36.4,17.8-36.4,38.1
				c0,21.1,17.1,38.1,38.1,38.1h98.5c21.1,0,38.1-17.1,38.1-38.1C176,129.4,159.8,112.7,139.7,111.6z"/>
			
				<radialGradient id="SVGID_23_" cx="2.6347" cy="194.0537" r="1" fx="3.1736" fy="194.2303" gradientTransform="matrix(113.354 0 0 -113.354 -169.154 22098.0469)" gradientUnits="userSpaceOnUse">
				<stop  offset="0.1957" style="stop-color:#F9F9F9;stop-opacity:0.78"/>
				<stop  offset="0.1977" style="stop-color:#CCCCCC"/>
				<stop  offset="0.206" style="stop-color:#FFFFFF"/>
				<stop  offset="0.2098" style="stop-color:#C9C9C9"/>
				<stop  offset="0.3165" style="stop-color:#D1D1D1"/>
				<stop  offset="0.494" style="stop-color:#CDCDCD"/>
				<stop  offset="0.7527" style="stop-color:#FFFFFF;stop-opacity:0.4"/>
			</radialGradient>
			<path class="st20" d="M139.7,111.6C137.8,85,115.6,64,88.6,64C61.5,64,39.3,85,37.6,111.6c-20.3,1.1-36.4,17.8-36.4,38.1
				c0,21.1,17.1,38.1,38.1,38.1h98.5c21.1,0,38.1-17.1,38.1-38.1C176,129.4,159.8,112.7,139.7,111.6z"/>
			
				<radialGradient id="SVGID_24_" cx="0.1185" cy="207.0898" r="1.0004" gradientTransform="matrix(-13.5001 18.5581 27.0728 19.6941 -5502.8472 -3982.7827)" gradientUnits="userSpaceOnUse">
				<stop  offset="0" style="stop-color:#FFFFFF"/>
				<stop  offset="1" style="stop-color:#FFFFFF;stop-opacity:0"/>
			</radialGradient>
			<path class="st21" d="M88.6,116.3c-14.4-11.6-19.9-29.4-12.5-39.7c7.4-10.2,25.2-9.1,39.5,2.5c14.4,11.6,19.9,29.4,12.5,39.7
				C120.7,129.3,102.9,128.1,88.6,116.3z"/>
			
				<radialGradient id="SVGID_25_" cx="0.1508" cy="210.1118" r="1.0003" gradientTransform="matrix(-10.6095 14.5846 21.2761 15.4773 -4318.1899 -3117.8413)" gradientUnits="userSpaceOnUse">
				<stop  offset="0" style="stop-color:#FFFFFF"/>
				<stop  offset="1" style="stop-color:#FFFFFF;stop-opacity:0"/>
			</radialGradient>
			<path class="st22" d="M139.9,150.9c-11.4-9.1-15.8-23.2-9.9-31.1c5.9-8,19.7-7.2,31.1,2.1c11.4,9.1,15.8,23.2,9.9,31.1
				C165.1,160.9,151.3,160,139.9,150.9z"/>
			
				<radialGradient id="SVGID_26_" cx="18.7568" cy="183.7996" r="0.9992" gradientTransform="matrix(8.3295 -4.0104 -11.6746 -24.248 2011.4745 4693.731)" gradientUnits="userSpaceOnUse">
				<stop  offset="0" style="stop-color:#FFFFFF"/>
				<stop  offset="1" style="stop-color:#FFFFFF;stop-opacity:0"/>
			</radialGradient>
			<path class="st23" d="M28.5,152.2c-8.4-13.1-18-19.4-21.6-14c-3.6,5.3,0.2,20.1,8.5,33.2c8.4,13.1,18,19.4,21.6,14
				C40.6,179.9,36.8,165.1,28.5,152.2z"/>
		</g>
	</g>
</g>
</svg>
