<svg width="197" height="196" viewBox="0 0 197 196" fill="none" xmlns="http://www.w3.org/2000/svg">
<path d="M153.997 51.9895C151.926 22.9914 127.899 0 98.2796 0C68.66 0 44.4259 22.9914 42.5617 51.9895C20.606 53.0251 3 71.2525 3 93.6225C3 116.614 21.6417 135.256 44.633 135.256H152.133C175.125 135.256 193.766 116.614 193.766 93.6225C193.559 71.2525 175.953 53.0251 153.997 51.9895Z" fill="url(#paint0_radial_1_439)"/>
<path d="M98.2795 57.1672C82.5377 44.5323 76.5309 25.0622 84.609 13.8772C92.687 2.69217 112.157 3.93495 127.692 16.5699C143.434 29.2048 149.441 48.6749 141.362 59.8599C133.284 71.252 113.814 70.0093 98.2795 57.1672Z" fill="url(#paint1_radial_1_439)"/>
<path opacity="0.4" d="M154.205 94.865C141.777 84.9228 137.013 69.5952 143.434 60.8958C149.855 52.1963 164.975 53.0249 177.403 63.1742C189.831 73.1164 194.595 88.444 188.174 97.1434C181.753 105.843 166.632 104.807 154.205 94.865Z" fill="url(#paint2_radial_1_439)"/>
<path opacity="0.2" d="M32.6194 96.3151C23.5057 82.0232 12.9421 75.1879 9.00662 80.9875C5.07115 86.7872 9.21374 102.943 18.3274 117.028C27.4411 131.32 38.0048 138.155 41.9402 132.356C45.8757 126.556 41.7331 110.4 32.6194 96.3151Z" fill="url(#paint3_radial_1_439)"/>
<path d="M51.6753 160.943C49.3969 165.085 44.2187 166.328 40.0761 164.05C35.9335 161.771 34.6907 156.593 36.9691 152.451C39.2476 148.308 53.9538 140.23 53.9538 140.23C53.9538 140.23 53.9538 156.8 51.6753 160.943Z" fill="url(#paint4_radial_1_439)"/>
<path d="M37.1764 159.494C35.9337 155.973 36.555 152.451 39.0406 151.416C41.319 150.38 44.2189 152.452 45.6688 155.766C46.9115 159.287 46.083 162.808 43.8046 163.844C41.319 164.879 38.4192 163.015 37.1764 159.494Z" fill="url(#paint5_radial_1_439)"/>
<path d="M87.3018 160.943C85.0234 165.085 79.8451 166.328 75.7025 164.05C71.56 161.771 70.3172 156.593 72.5956 152.451C74.874 148.308 89.5802 140.23 89.5802 140.23C89.5802 140.23 89.5802 156.8 87.3018 160.943Z" fill="url(#paint6_radial_1_439)"/>
<path d="M72.8029 159.494C71.5601 155.973 72.1815 152.451 74.6671 151.416C76.9455 150.38 79.8453 152.452 81.2952 155.766C82.538 159.287 81.7095 162.808 79.431 163.844C76.9455 164.879 74.0457 163.015 72.8029 159.494Z" fill="url(#paint7_radial_1_439)"/>
<path d="M122.928 160.943C120.649 165.085 115.471 166.328 111.329 164.05C107.186 161.771 105.943 156.593 108.222 152.451C110.5 148.308 125.206 140.23 125.206 140.23C125.206 140.23 125.206 156.8 122.928 160.943Z" fill="url(#paint8_radial_1_439)"/>
<path d="M108.429 159.494C107.186 155.973 107.808 152.451 110.293 151.416C112.572 150.38 115.471 152.452 116.921 155.766C118.164 159.287 117.336 162.808 115.057 163.844C112.572 164.879 109.672 163.015 108.429 159.494Z" fill="url(#paint9_radial_1_439)"/>
<path d="M158.554 160.943C156.276 165.085 151.097 166.328 146.955 164.05C142.812 161.771 141.569 156.593 143.848 152.451C146.126 148.308 160.833 140.23 160.833 140.23C160.833 140.23 160.833 156.8 158.554 160.943Z" fill="url(#paint10_radial_1_439)"/>
<path d="M144.055 159.494C142.812 155.973 143.434 152.451 145.919 151.416C148.198 150.38 151.097 152.452 152.547 155.766C153.79 159.287 152.962 162.808 150.683 163.844C148.198 164.879 145.298 163.015 144.055 159.494Z" fill="url(#paint11_radial_1_439)"/>
<path d="M69.4886 190.766C67.2102 194.908 62.0319 196.151 57.8893 193.873C53.7467 191.594 52.5039 186.209 54.7824 182.274C57.0608 178.131 71.767 170.053 71.767 170.053C71.767 170.053 71.767 186.83 69.4886 190.766Z" fill="url(#paint12_radial_1_439)"/>
<path d="M54.9894 189.521C53.7467 186 54.368 182.478 56.8536 181.443C59.132 180.407 62.0318 182.478 63.4817 185.792C64.7245 189.314 63.896 192.835 61.6176 193.87C59.132 194.906 56.2322 192.835 54.9894 189.521Z" fill="url(#paint13_radial_1_439)"/>
<path d="M105.115 190.766C102.836 194.908 97.6581 196.151 93.5155 193.873C89.3729 191.594 88.1302 186.209 90.4086 182.274C92.687 178.131 107.393 170.053 107.393 170.053C107.393 170.053 107.393 186.83 105.115 190.766Z" fill="url(#paint14_radial_1_439)"/>
<path d="M90.6155 189.521C89.3728 186 89.9941 182.478 92.4797 181.443C94.7581 180.407 97.6579 182.478 99.1078 185.792C100.351 189.314 99.5221 192.835 97.2437 193.87C94.7581 194.906 91.8583 192.835 90.6155 189.521Z" fill="url(#paint15_radial_1_439)"/>
<path d="M140.741 190.766C138.463 194.908 133.284 196.151 129.142 193.873C124.999 191.594 123.756 186.209 126.035 182.274C128.313 178.131 143.019 170.053 143.019 170.053C143.019 170.053 143.019 186.83 140.741 190.766Z" fill="url(#paint16_radial_1_439)"/>
<path d="M126.242 189.521C124.999 186 125.621 182.478 128.106 181.443C130.385 180.407 133.284 182.478 134.734 185.792C135.977 189.314 135.149 192.835 132.87 193.87C130.385 194.906 127.485 192.835 126.242 189.521Z" fill="url(#paint17_radial_1_439)"/>
<defs>
<radialGradient id="paint0_radial_1_439" cx="0" cy="0" r="1" gradientUnits="userSpaceOnUse" gradientTransform="translate(122.255 28.4687) rotate(180) scale(145.52 106.303)">
<stop stop-color="white"/>
<stop offset="0.198" stop-color="#D5F3FF"/>
<stop offset="1" stop-color="#85BCF1"/>
</radialGradient>
<radialGradient id="paint1_radial_1_439" cx="0" cy="0" r="1" gradientUnits="userSpaceOnUse" gradientTransform="translate(112.934 36.9512) rotate(126.034) scale(25.045 36.5358)">
<stop stop-color="white"/>
<stop offset="1" stop-color="white" stop-opacity="0"/>
</radialGradient>
<radialGradient id="paint2_radial_1_439" cx="0" cy="0" r="1" gradientUnits="userSpaceOnUse" gradientTransform="translate(165.872 78.9135) rotate(126.034) scale(19.6835 28.7144)">
<stop stop-color="white"/>
<stop offset="1" stop-color="white" stop-opacity="0"/>
</radialGradient>
<radialGradient id="paint3_radial_1_439" cx="0" cy="0" r="1" gradientUnits="userSpaceOnUse" gradientTransform="translate(25.4636 106.648) rotate(-25.7092) scale(10.089 29.3699)">
<stop stop-color="white"/>
<stop offset="1" stop-color="white" stop-opacity="0"/>
</radialGradient>
<radialGradient id="paint4_radial_1_439" cx="0" cy="0" r="1" gradientUnits="userSpaceOnUse" gradientTransform="translate(40.2524 159.012) rotate(30.0007) scale(20.4865 20.4865)">
<stop stop-color="#D0F2FF"/>
<stop offset="0.198" stop-color="#D5F3FF"/>
<stop offset="1" stop-color="#85BCF1"/>
</radialGradient>
<radialGradient id="paint5_radial_1_439" cx="0" cy="0" r="1" gradientUnits="userSpaceOnUse" gradientTransform="translate(41.3348 157.678) rotate(156.037) scale(4.57763 6.67765)">
<stop stop-color="white"/>
<stop offset="1" stop-color="white" stop-opacity="0"/>
</radialGradient>
<radialGradient id="paint6_radial_1_439" cx="0" cy="0" r="1" gradientUnits="userSpaceOnUse" gradientTransform="translate(75.8636 159.012) rotate(30.0007) scale(20.4865 20.4865)">
<stop stop-color="#D0F2FF"/>
<stop offset="0.198" stop-color="#D5F3FF"/>
<stop offset="1" stop-color="#85BCF1"/>
</radialGradient>
<radialGradient id="paint7_radial_1_439" cx="0" cy="0" r="1" gradientUnits="userSpaceOnUse" gradientTransform="translate(76.9463 157.678) rotate(156.037) scale(4.57762 6.67765)">
<stop stop-color="white"/>
<stop offset="1" stop-color="white" stop-opacity="0"/>
</radialGradient>
<radialGradient id="paint8_radial_1_439" cx="0" cy="0" r="1" gradientUnits="userSpaceOnUse" gradientTransform="translate(111.476 159.012) rotate(30.0007) scale(20.4873 20.4873)">
<stop stop-color="#D0F2FF"/>
<stop offset="0.198" stop-color="#D5F3FF"/>
<stop offset="1" stop-color="#85BCF1"/>
</radialGradient>
<radialGradient id="paint9_radial_1_439" cx="0" cy="0" r="1" gradientUnits="userSpaceOnUse" gradientTransform="translate(112.558 157.678) rotate(156.037) scale(4.57763 6.67765)">
<stop stop-color="white"/>
<stop offset="1" stop-color="white" stop-opacity="0"/>
</radialGradient>
<radialGradient id="paint10_radial_1_439" cx="0" cy="0" r="1" gradientUnits="userSpaceOnUse" gradientTransform="translate(147.087 159.012) rotate(30.0007) scale(20.4865 20.4865)">
<stop stop-color="#D0F2FF"/>
<stop offset="0.198" stop-color="#D5F3FF"/>
<stop offset="1" stop-color="#85BCF1"/>
</radialGradient>
<radialGradient id="paint11_radial_1_439" cx="0" cy="0" r="1" gradientUnits="userSpaceOnUse" gradientTransform="translate(148.169 157.677) rotate(156.037) scale(4.57762 6.67765)">
<stop stop-color="white"/>
<stop offset="1" stop-color="white" stop-opacity="0"/>
</radialGradient>
<radialGradient id="paint12_radial_1_439" cx="0" cy="0" r="1" gradientUnits="userSpaceOnUse" gradientTransform="translate(58.0584 188.929) rotate(30.0007) scale(20.4865 20.4865)">
<stop stop-color="#D0F2FF"/>
<stop offset="0.198" stop-color="#D5F3FF"/>
<stop offset="1" stop-color="#85BCF1"/>
</radialGradient>
<radialGradient id="paint13_radial_1_439" cx="0" cy="0" r="1" gradientUnits="userSpaceOnUse" gradientTransform="translate(59.1399 187.592) rotate(156.037) scale(4.57762 6.67765)">
<stop stop-color="white"/>
<stop offset="1" stop-color="white" stop-opacity="0"/>
</radialGradient>
<radialGradient id="paint14_radial_1_439" cx="0" cy="0" r="1" gradientUnits="userSpaceOnUse" gradientTransform="translate(93.67 188.929) rotate(30.0007) scale(20.4867 20.4867)">
<stop stop-color="#D0F2FF"/>
<stop offset="0.198" stop-color="#D5F3FF"/>
<stop offset="1" stop-color="#85BCF1"/>
</radialGradient>
<radialGradient id="paint15_radial_1_439" cx="0" cy="0" r="1" gradientUnits="userSpaceOnUse" gradientTransform="translate(94.752 187.592) rotate(156.037) scale(4.57791 6.67808)">
<stop stop-color="white"/>
<stop offset="1" stop-color="white" stop-opacity="0"/>
</radialGradient>
<radialGradient id="paint16_radial_1_439" cx="0" cy="0" r="1" gradientUnits="userSpaceOnUse" gradientTransform="translate(129.281 188.929) rotate(30.0007) scale(20.4865 20.4865)">
<stop stop-color="#D0F2FF"/>
<stop offset="0.198" stop-color="#D5F3FF"/>
<stop offset="1" stop-color="#85BCF1"/>
</radialGradient>
<radialGradient id="paint17_radial_1_439" cx="0" cy="0" r="1" gradientUnits="userSpaceOnUse" gradientTransform="translate(130.363 187.592) rotate(156.037) scale(4.57792 6.67809)">
<stop stop-color="white"/>
<stop offset="1" stop-color="white" stop-opacity="0"/>
</radialGradient>
</defs>
</svg>
