<svg width="197" height="196" viewBox="0 0 197 196" fill="none" xmlns="http://www.w3.org/2000/svg">
<path d="M178.354 133.996L160.596 123.607L166.162 120.41C170.668 117.746 171.993 112.152 169.607 107.889C166.957 103.627 161.391 102.029 157.15 104.426L142.572 112.951L129.054 105.225C129.584 102.828 129.849 100.164 129.849 97.7664C129.849 95.1025 129.584 92.705 129.054 90.3074L142.572 82.582L157.15 91.1066C158.475 91.9058 160.065 92.4385 161.656 92.4385C164.836 92.4385 168.017 90.8401 169.607 87.9098C172.258 83.6475 170.668 77.7869 166.162 75.3894L160.596 72.1926L178.354 61.8033C182.595 59.1394 184.185 53.5451 181.8 49.2828C179.149 44.7541 173.583 43.4222 169.342 45.8197L151.584 56.209V49.8156C151.584 44.7541 147.608 40.7582 142.572 40.7582C137.536 40.7582 133.56 44.7541 133.56 49.8156V66.8648L120.042 74.5901C116.332 71.127 111.826 68.4631 107.055 66.8648V51.1476L121.633 42.6229C126.139 39.959 127.464 34.3648 125.078 30.1025C122.428 25.5738 116.862 24.2418 112.621 26.6393L107.055 29.8361V9.05744C107.055 3.99597 103.079 0 98.043 0C93.007 0 89.0312 3.99597 89.0312 9.05744V29.8361L83.4651 26.6393C79.2242 23.9754 73.393 25.5738 71.0076 30.1025C68.357 34.3648 69.9474 40.2254 74.4533 42.6229L89.0312 51.1476V66.8648C83.9952 68.4631 79.7543 70.8606 76.0436 74.5901L62.5259 66.5984V49.5492C62.5259 44.4877 58.5501 40.4918 53.5141 40.4918C48.478 40.4918 44.5022 44.4877 44.5022 49.5492V55.9426L26.7437 45.5533C22.2378 42.8894 16.6716 44.4878 14.2862 49.0164C11.6356 53.2787 13.226 59.1394 17.7319 61.5369L35.4904 71.9262L29.9243 75.123C25.6835 77.7869 24.0931 83.3812 26.4786 87.6435C28.0689 90.5738 31.2496 92.1721 34.4302 92.1721C36.0205 92.1721 37.6109 91.9057 38.9361 90.8402L53.5141 82.3156L67.0318 90.041C66.5017 92.4386 65.9715 95.1025 65.9715 97.5C65.9715 100.164 66.2366 102.562 67.0318 104.959L53.5141 112.684L38.9361 104.16C34.4302 101.496 28.8641 103.094 26.4786 107.623C23.8281 111.885 25.4184 117.746 29.9243 120.143L35.4904 123.34L17.7319 133.73C13.226 136.393 11.9007 141.988 14.2862 146.25C15.8765 149.18 19.0571 150.779 22.2378 150.779C23.8281 150.779 25.4184 150.512 26.7437 149.447L44.5022 139.057V145.451C44.5022 150.512 48.478 154.508 53.5141 154.508C58.5501 154.508 62.7909 150.512 62.7909 145.451V128.402L76.3086 120.41C80.0194 123.873 84.5253 126.537 89.2962 128.135V143.852L74.7183 152.377C70.2124 155.041 68.8871 160.635 71.2726 164.898C73.9231 169.426 79.4893 170.758 83.7301 168.361L89.2962 165.164V185.943C89.2962 191.004 93.272 195 98.3081 195C103.344 195 107.32 191.004 107.32 185.943V165.697L112.886 168.893C114.211 169.693 115.802 170.225 117.392 170.225C120.573 170.225 123.753 168.627 125.343 165.697C127.994 161.434 126.404 155.574 121.898 153.176L107.32 144.652V128.934C112.356 127.336 116.597 124.939 120.307 121.209L133.825 128.934V145.984C133.825 151.045 137.801 155.041 142.837 155.041C147.873 155.041 151.849 151.045 151.849 145.984V139.59L169.607 149.98C170.933 150.779 172.523 151.311 174.113 151.311C177.294 151.311 180.475 149.713 182.065 146.783C184.185 142.254 182.595 136.393 178.354 133.996ZM97.2478 111.619C89.5613 111.619 83.2 105.225 83.2 97.5C83.2 89.7746 89.5613 83.3812 97.2478 83.3812C104.934 83.3812 111.296 89.7746 111.296 97.5C111.296 105.225 104.934 111.619 97.2478 111.619Z" fill="url(#paint0_radial_1_523)"/>
<defs>
<radialGradient id="paint0_radial_1_523" cx="0" cy="0" r="1" gradientUnits="userSpaceOnUse" gradientTransform="translate(153.109 58.5485) scale(166.068 166.908)">
<stop stop-color="#28CBE9"/>
<stop offset="1" stop-color="#0A4FBB"/>
</radialGradient>
</defs>
</svg>
